<svg xmlns="http://www.w3.org/2000/svg" width="300" height="97" viewBox="0 0 3000 970"><g fill="rgb(255,255,255)" style="transform: none;"><g><path d="M2601 918 c11 -29 29 -72 39 -95 l19 -43 -95 -240 c-52 -132 -94 -243 -94 -246 0 -3 32 -4 71 -2 l72 3 55 143 c30 78 58 142 61 142 4 0 32 -64 62 -142 l56 -143 73 -3 c66 -3 72 -1 66 15 -4 10 -64 163 -133 341 l-126 322 -73 0 -74 0 21 -52z"></path><path d="M1027 776 c-59 -16 -114 -60 -141 -112 -28 -53 -34 -170 -12 -228 57 -148 271 -196 396 -89 22 19 40 38 40 42 0 4 -19 21 -42 38 l-43 30 -34 -24 c-61 -42 -157 -24 -179 34 -21 55 -23 73 -12 112 15 55 60 91 113 91 42 0 107 -30 107 -50 0 -5 23 6 51 26 l50 37 -28 30 c-58 61 -174 89 -266 63z"></path><path d="M0 520 l0 -260 70 0 70 0 0 110 0 110 80 0 c93 0 132 -15 155 -60 20 -39 19 -79 -5 -117 -23 -38 -67 -53 -162 -53 l-68 0 0 -56 0 -56 118 3 c111 4 122 6 167 34 73 45 97 98 93 202 -3 71 -7 86 -33 124 -48 68 -105 92 -236 97 l-109 5 0 88 0 89 -70 0 -70 0 0 -260z"></path><path d="M610 575 l0 -205 70 0 70 0 0 205 0 205 -70 0 -70 0 0 -205z"></path><path d="M1400 520 l0 -260 70 0 70 0 0 111 0 111 96 -4 c94 -3 96 -4 125 -36 23 -25 29 -42 29 -76 0 -83 -52 -116 -182 -116 l-68 0 0 -56 0 -56 118 4 c96 3 124 8 159 26 104 55 142 196 84 311 -44 84 -126 121 -273 121 l-88 0 0 90 0 90 -70 0 -70 0 0 -260z"></path><path d="M2039 757 c-67 -45 -88 -135 -46 -198 36 -55 76 -69 195 -69 101 0 102 0 102 -24 0 -68 -81 -93 -185 -58 -33 12 -63 18 -67 14 -3 -4 -13 -24 -22 -45 l-16 -38 43 -19 c56 -25 166 -42 219 -34 60 9 112 38 140 76 22 31 23 43 26 221 l3 187 -70 0 c-64 0 -71 -2 -71 -19 0 -19 -2 -19 -42 4 -60 34 -160 35 -209 2z m206 -81 c37 -16 55 -42 55 -80 0 -26 -1 -26 -75 -26 -62 0 -79 4 -95 20 -27 27 -25 55 6 79 31 25 62 26 109 7z"></path><path d="M610 140 l0 -140 145 0 145 0 0 140 0 140 -145 0 -145 0 0 -140z m240 -5 l0 -95 -95 0 -95 0 0 95 0 95 95 0 95 0 0 -95z"></path><path d="M710 135 l0 -45 45 0 45 0 0 45 0 45 -45 0 -45 0 0 -45z"></path></g></g></svg>