<svg xmlns="http://www.w3.org/2000/svg" viewBox="0 0 3000 3000" style="&#10;"><g fill="rgb(9,87,10)" style="transform: none;"><g style="transform: none;"><path id="pHD9IwQQE" d="M1525 2798 c4 -24 9 -46 12 -50 2 -5 53 -8 112 -8 123 0 141 -9 141 -72 0 -71 26 -68 -572 -68 -505 0 -536 -1 -551 -18 -25 -27 -21 -69 7 -87 20 -14 60 -16 256 -14 127 0 234 -2 237 -5 10 -9 -16 -34 -44 -41 -14 -3 -55 -31 -90 -61 -64 -54 -64 -54 -273 -54 -209 0 -209 0 -228 -25 -23 -29 -19 -59 12 -81 17 -12 68 -14 303 -14 179 1 289 -3 302 -9 11 -6 22 -25 26 -42 6 -24 2 -36 -16 -55 -22 -24 -22 -24 -458 -24 -240 0 -446 -3 -458 -6 -18 -5 -34 -28 -38 -54 0 -3 -4 -10 -8 -17 -6 -9 63 -12 285 -15 293 -3 293 -3 350 -35 60 -34 111 -45 89 -20 -16 20 -9 22 58 19 44 -3 61 -8 61 -18 0 -30 29 -13 32 19 3 32 3 32 146 35 111 2 147 6 159 17 13 13 11 15 -11 15 -14 0 -26 3 -26 8 1 19 183 119 255 140 130 38 147 40 272 39 125 -2 130 -3 198 -37 51 -26 77 -46 98 -77 37 -56 46 -107 22 -133 -18 -19 -17 -20 10 -20 15 0 53 12 83 26 30 14 88 33 128 41 67 13 80 13 146 -2 101 -23 148 -29 148 -18 0 4 -8 13 -18 19 -10 7 -24 31 -31 55 -7 24 -16 49 -21 54 -4 6 -10 23 -14 39 -4 17 -17 43 -29 60 -12 17 -26 41 -32 54 -16 37 -127 159 -158 172 -15 7 -31 18 -35 24 -17 27 -228 119 -301 131 -45 7 -48 12 -56 97 -4 35 -11 84 -18 111 -11 47 -11 47 -240 47 -229 0 -229 0 -222 -42z"/><path id="pOZjqpnIe" d="M26 2295 c-21 -33 -20 -42 9 -70 23 -24 28 -25 175 -25 137 0 152 2 170 20 24 24 25 48 4 78 -15 21 -21 22 -178 22 -163 0 -164 0 -180 -25z"/><path id="p3fAK0vVE" d="M1800 1817 c0 -21 9 -56 20 -77 38 -74 53 -165 47 -286 -3 -67 -11 -125 -21 -148 -15 -35 -22 -106 -12 -106 3 0 17 11 32 25 15 14 34 25 43 25 9 0 29 7 45 15 26 14 30 14 43 -2 12 -16 13 -13 9 27 -2 25 -11 72 -20 105 -29 112 -14 217 49 333 20 36 35 76 35 95 -1 29 -2 30 -14 15 -11 -15 -30 -18 -124 -18 -95 0 -112 2 -121 18 -8 14 -10 10 -11 -21z"/><path id="p7VTu1FHH" d="M1300 1725 c0 -49 3 -65 14 -65 7 0 16 9 19 20 5 18 14 20 111 20 89 0 107 -3 115 -17 8 -15 10 -11 11 19 0 34 -3 38 -52 62 -43 22 -66 26 -135 26 -83 0 -83 0 -83 -65z"/><path id="pBbJjsySo" d="M2356 1755 c-47 -16 -100 -66 -129 -120 -18 -32 -22 -57 -22 -130 0 -109 23 -175 61 -175 14 0 22 5 19 13 -3 7 33 30 96 61 116 55 209 135 243 206 17 35 27 44 44 43 17 -2 22 2 22 21 0 24 -49 65 -103 85 -40 15 -185 13 -231 -4z"/><path id="p1DZyhavMO" d="M933 1537 c-38 -73 -44 -127 -13 -127 13 0 18 5 14 15 -6 15 -1 17 41 18 49 1 65 -4 65 -18 0 -8 7 -15 15 -15 12 0 15 17 15 90 0 73 -3 90 -15 90 -8 0 -15 -7 -15 -16 0 -10 -7 -14 -22 -12 -15 2 -22 9 -22 21 1 10 -5 17 -15 17 -10 0 -29 -25 -48 -63z"/><path id="pISr0XRy2" d="M1300 1505 c0 -78 3 -95 15 -95 8 0 15 7 15 16 0 14 7 15 37 11 42 -7 48 -12 57 -50 12 -52 -78 -108 -91 -57 -3 11 -12 20 -20 20 -11 0 -13 -16 -11 -77 3 -78 3 -78 84 -81 71 -2 86 0 135 25 46 24 58 37 84 88 28 56 30 68 30 170 0 96 -2 110 -17 113 -11 2 -18 -3 -18 -12 0 -14 -19 -16 -131 -16 -122 0 -131 1 -136 20 -3 11 -12 20 -19 20 -11 0 -14 -21 -14 -95z"/><path id="p16tSy5LCG" d="M460 1265 c0 -75 0 -75 95 -75 119 0 135 11 135 95 0 48 -2 55 -20 55 -13 0 -18 -5 -14 -15 5 -13 -8 -15 -85 -15 -74 0 -91 3 -91 15 0 8 -4 15 -10 15 -6 0 -10 -32 -10 -75z"/><path id="pf8rnFvnZ" d="M926 1288 c-9 -77 -7 -128 4 -128 6 0 10 7 10 15 0 11 12 15 50 15 38 0 50 -4 50 -15 0 -8 7 -15 15 -15 12 0 15 17 15 90 0 73 -3 90 -15 90 -8 0 -15 -7 -15 -15 0 -11 -12 -15 -45 -15 -33 0 -45 4 -45 15 0 8 -4 15 -9 15 -4 0 -11 -24 -15 -52z"/><path id="pM4L2Vi5g" d="M1570 1027 c-43 -15 -89 -21 -217 -25 -90 -2 -163 -9 -163 -13 0 -5 6 -9 14 -9 8 0 16 -16 20 -41 4 -23 13 -54 22 -70 15 -29 15 -29 204 -29 177 0 191 -1 210 -20 26 -26 26 -72 -1 -96 -20 -18 -45 -19 -498 -22 -470 -2 -476 -2 -493 -23 -24 -29 -23 -42 8 -73 27 -26 27 -26 410 -26 369 0 384 -1 394 -19 14 -27 12 -62 -4 -83 -12 -16 -33 -18 -184 -18 -109 0 -180 -4 -197 -12 -29 -13 -43 -53 -28 -77 24 -39 47 -41 431 -41 372 0 372 0 372 -22 0 -12 5 -50 11 -85 11 -63 11 -63 236 -63 225 0 225 0 218 92 -13 168 -19 149 55 164 63 13 210 62 220 73 3 3 37 21 75 40 63 31 195 117 195 127 0 2 -13 23 -29 46 -15 24 -41 63 -57 88 -16 25 -34 50 -40 55 -17 15 -84 124 -84 137 0 6 8 17 18 24 15 12 14 13 -15 14 -18 0 -58 -7 -90 -15 -31 -8 -72 -15 -90 -15 -38 0 -46 -24 -11 -34 29 -7 21 -14 -67 -61 -87 -47 -206 -83 -310 -95 -98 -12 -231 2 -279 30 -19 10 -36 16 -39 13 -3 -3 -28 17 -55 44 -38 38 -50 58 -56 92 -5 35 -3 46 11 57 16 12 14 13 -22 12 -22 0 -65 -10 -95 -21z"/><path id="pMG8VCUAM" d="M537 432 c-22 -24 -21 -55 1 -75 16 -15 45 -17 204 -17 166 0 187 2 201 18 24 26 21 47 -9 71 -25 19 -40 21 -204 21 -159 0 -179 -2 -193 -18z"/></g></g><g fill="rgb(255,255,255)" style="transform: none;"><g><path id="pok9iJI7B" d="M2365 2025 c-251 -56 -425 -269 -425 -522 0 -96 16 -164 56 -244 66 -132 177 -225 328 -274 77 -25 95 -27 186 -23 95 5 106 8 193 51 90 45 197 132 197 159 -1 7 -48 50 -106 96 -106 82 -106 82 -144 52 -66 -52 -126 -73 -190 -67 -136 12 -224 110 -224 247 0 78 23 129 83 183 44 40 93 57 164 57 57 0 104 -18 158 -61 22 -17 45 -29 53 -26 28 11 206 160 206 172 0 24 -124 126 -195 160 -114 54 -221 67 -340 40z"/><path id="pq60Zqv7y" d="M202 1997 c-9 -11 -12 -140 -10 -513 3 -499 3 -499 276 -502 249 -2 277 -1 316 16 65 29 110 75 142 144 24 53 28 75 28 144 -1 44 -7 97 -14 118 -11 35 -10 42 18 95 94 175 42 402 -111 484 -40 21 -53 22 -338 25 -247 3 -297 1 -307 -11z m483 -252 c33 -32 33 -78 0 -111 -23 -23 -31 -25 -112 -22 -88 3 -88 3 -91 67 -2 35 -1 70 2 77 4 10 28 14 91 14 78 0 88 -2 110 -25z m-51 -396 c33 -26 36 -79 6 -109 -16 -16 -33 -20 -84 -20 -63 0 -63 0 -69 66 -4 37 -4 71 -1 75 3 5 31 9 63 9 44 0 65 -5 85 -21z"/><path id="p4qMBwK6z" d="M1047 2003 c-4 -3 -7 -235 -7 -514 0 -507 0 -507 188 -514 231 -10 337 1 428 44 94 44 162 116 204 216 31 75 33 89 37 220 4 107 1 156 -11 209 -45 190 -171 308 -359 335 -83 12 -469 15 -480 4z m459 -278 c73 -46 98 -103 99 -230 0 -88 -3 -107 -26 -156 -36 -77 -96 -114 -184 -114 -60 0 -60 0 -63 269 -2 268 -2 268 62 264 49 -3 75 -11 112 -33z"/></g></g></svg>