<svg xmlns="http://www.w3.org/2000/svg" width="1246" height="478" viewBox="0 0 12460 4780"><g fill="#fff" data-darkreader-inline-fill=""><g><path d="M80 4766 c0 -8 -11 -17 -24 -20 -14 -3 -30 -20 -40 -40 -15 -31 -16 -235 -16 -2336 0 -2098 1 -2305 16 -2336 l16 -34 1827 2 1826 3 3 22 c4 27 -30 53 -162 122 -230 121 -439 287 -618 489 -59 66 -117 122 -141 135 l-42 22 -915 5 c-850 5 -918 6 -943 22 -53 36 -52 24 -52 578 0 568 -2 545 62 587 26 17 102 18 1333 18 1386 0 1358 1 1600 -46 74 -15 185 -68 238 -114 43 -37 94 -117 120 -185 44 -114 54 -285 26 -430 -8 -46 -13 -94 -10 -106 12 -48 86 -92 198 -118 234 -56 249 -58 415 -54 153 3 163 4 186 26 53 50 80 233 54 367 -9 44 -19 109 -22 145 -4 36 -14 90 -22 120 -18 66 -88 209 -134 276 -50 73 -173 189 -265 250 -87 57 -102 79 -90 129 4 15 24 36 49 51 128 81 184 123 264 202 128 127 195 235 253 411 50 153 63 251 57 429 -9 276 -35 379 -107 414 -30 15 -65 18 -245 18 -203 0 -214 -1 -324 -31 -122 -32 -163 -49 -198 -82 -30 -27 -29 -55 4 -147 24 -67 27 -89 27 -215 0 -145 -10 -210 -47 -295 -71 -163 -215 -269 -417 -310 -204 -40 -221 -41 -1590 -38 -1226 3 -1327 4 -1356 20 -59 32 -59 31 -59 623 0 498 1 543 17 568 36 54 -7 52 1003 57 l940 5 46 27 c26 16 71 58 104 100 127 160 357 355 568 480 193 115 227 137 233 153 9 21 -14 45 -42 45 -15 0 -24 6 -24 15 0 13 -206 15 -1790 15 -1522 0 -1790 -2 -1790 -14z"></path><path d="M4520 4768 c0 -9 -59 -24 -174 -46 -231 -44 -387 -95 -581 -191 -196 -98 -303 -164 -431 -269 -115 -93 -323 -302 -380 -382 -164 -228 -282 -457 -366 -714 -75 -229 -81 -291 -30 -324 23 -15 63 -17 323 -20 429 -5 440 -1 499 156 58 153 152 319 258 452 179 225 492 408 804 471 56 11 107 23 113 27 5 4 609 9 1340 12 l1330 5 46 23 c32 16 133 109 320 296 343 342 397 400 405 431 7 27 -10 55 -32 55 -8 0 -14 7 -14 15 0 13 -197 15 -1715 15 -1365 0 -1715 -3 -1715 -12z"></path><path d="M7763 4228 c-187 -189 -348 -358 -357 -376 -16 -31 -17 -167 -16 -1913 0 -1652 2 -1884 15 -1910 l16 -29 1779 0 1780 0 168 30 c247 44 396 98 587 213 131 79 194 128 289 223 229 232 346 470 422 864 21 110 20 626 -2 730 -67 324 -99 411 -224 615 -130 213 -385 451 -601 560 -143 73 -390 148 -537 165 -53 6 -133 14 -177 19 -44 5 -623 9 -1293 8 l-1214 -2 -29 -33 -29 -32 0 -321 c0 -362 1 -370 68 -389 25 -7 440 -11 1272 -13 l1235 -2 115 -31 c64 -18 140 -44 170 -59 210 -106 364 -294 436 -530 26 -85 28 -101 28 -290 0 -163 -3 -212 -18 -265 -76 -276 -216 -446 -461 -561 -47 -22 -121 -47 -163 -55 -42 -9 -107 -22 -144 -30 -56 -12 -269 -14 -1335 -14 -1238 0 -1269 1 -1300 20 -17 10 -38 29 -45 42 -11 19 -14 367 -18 1853 -3 1007 -9 1836 -13 1843 -5 6 -21 12 -36 12 -22 0 -85 -58 -368 -342z"></path><path d="M2572 1849 c-49 -14 -68 -64 -51 -133 40 -169 157 -474 235 -610 149 -260 287 -428 479 -585 281 -228 540 -360 885 -450 262 -68 218 -66 1719 -66 l1354 0 21 28 c20 28 21 38 21 362 l0 333 -24 26 c-14 14 -41 30 -60 36 -23 6 -476 10 -1246 10 -1016 0 -1221 3 -1278 15 -38 8 -105 19 -150 25 -91 13 -282 78 -422 145 -266 127 -479 351 -627 660 -74 154 -83 169 -119 190 -32 19 -54 20 -369 22 -196 1 -349 -2 -368 -8z"></path></g></g></svg>